HIERARCHY
ROOT CG
{
	OFFSET 0.000000 0.000000 27.772259
	CHANNELS 6 Xposition Yposition Zposition Xrotation Yrotation Zrotation
	JOINT Pelvis
	{
		OFFSET 0.000000 0.000000 0.000000
		CHANNELS 3 Xrotation Yrotation Zrotation
		JOINT Spine
		{
			OFFSET -0.000017 -10.490843 -0.495483
			CHANNELS 3 Xrotation Yrotation Zrotation
			JOINT Spine1
			{
				OFFSET -0.000010 -22.678980 0.018061
				CHANNELS 3 Xrotation Yrotation Zrotation
				JOINT Spine2
				{
					OFFSET -0.000010 -22.678967 0.018061
					CHANNELS 3 Xrotation Yrotation Zrotation
					JOINT Spine3
					{
						OFFSET -0.000010 -22.678982 0.018059
						CHANNELS 3 Xrotation Yrotation Zrotation
						JOINT Neck
						{
							OFFSET -0.000012 -22.678986 -1.289251
							CHANNELS 3 Xrotation Yrotation Zrotation
							JOINT Neck1
							{
								OFFSET -0.000007 -16.255905 0.012947
								CHANNELS 3 Xrotation Yrotation Zrotation
								JOINT Head
								{
									OFFSET -0.000005 -10.784607 -0.287502
									CHANNELS 3 Xrotation Yrotation Zrotation
									JOINT Jaw01
									{
										OFFSET 0.000031 7.782959 5.073944
										CHANNELS 3 Xrotation Yrotation Zrotation
										JOINT Jaw02
										{
											OFFSET 0.000004 -34.927139 -18.883980
											CHANNELS 3 Xrotation Yrotation Zrotation
											End Site
											{
												OFFSET -0.000170 8.372803 -38.812450
											}
										}
									}
									JOINT Nose
									{
										OFFSET -0.000002 -25.700912 7.222265
										CHANNELS 3 Xrotation Yrotation Zrotation
										End Site
										{
											OFFSET -0.000090 0.641281 -21.715439
										}
									}
									JOINT L_EyeSocket
									{
										OFFSET 7.352326 -19.832718 14.164183
										CHANNELS 3 Xrotation Yrotation Zrotation
										JOINT L_Eye
										{
											OFFSET -0.000868 -0.001053 0.016003
											CHANNELS 3 Xrotation Yrotation Zrotation
											End Site
											{
												OFFSET -0.001505 -0.001846 0.027969
											}
										}
										JOINT L_Eyelid_Top
										{
											OFFSET -0.001004 -0.002625 0.032516
											CHANNELS 3 Xrotation Yrotation Zrotation
											End Site
											{
												OFFSET -0.013218 0.005753 0.024086
											}
										}
										JOINT L_Eyelid_Bottom
										{
											OFFSET -0.001194 -0.002777 0.035381
											CHANNELS 3 Xrotation Yrotation Zrotation
											End Site
											{
												OFFSET -0.010032 0.008636 -0.024754
											}
										}
									}
									JOINT R_EyeSocket
									{
										OFFSET -7.352252 -19.832748 14.164206
										CHANNELS 3 Xrotation Yrotation Zrotation
										JOINT R_Eye
										{
											OFFSET 0.000875 -0.001068 0.015991
											CHANNELS 3 Xrotation Yrotation Zrotation
											End Site
											{
												OFFSET 0.001505 -0.001846 0.027962
											}
										}
										JOINT R_Eyelid_Top
										{
											OFFSET 0.001021 -0.002625 0.032516
											CHANNELS 3 Xrotation Yrotation Zrotation
											End Site
											{
												OFFSET 0.013214 0.005753 0.024078
											}
										}
										JOINT R_Eyelid_Bottom
										{
											OFFSET 0.001170 -0.002762 0.035366
											CHANNELS 3 Xrotation Yrotation Zrotation
											End Site
											{
												OFFSET 0.010029 0.008636 -0.024746
											}
										}
									}
								}
								JOINT Neck_Fat
								{
									OFFSET 0.000044 -9.595100 -17.491512
									CHANNELS 3 Xrotation Yrotation Zrotation
									End Site
									{
										OFFSET -0.000036 15.369423 -0.000007
									}
								}
							}
						}
						JOINT L_Clavicle
						{
							OFFSET 4.567107 -11.666092 -3.750029
							CHANNELS 3 Xrotation Yrotation Zrotation
							JOINT L_UpperArm
							{
								OFFSET 20.725666 -0.000053 -0.000032
								CHANNELS 3 Xrotation Yrotation Zrotation
								JOINT L_Forearm
								{
									OFFSET 5.265112 -0.585754 -20.155697
									CHANNELS 3 Xrotation Yrotation Zrotation
									JOINT L_Hand
									{
										OFFSET 2.653017 -10.877708 -16.383667
										CHANNELS 3 Xrotation Yrotation Zrotation
										JOINT L_Finger0
										{
											OFFSET -4.206146 -4.328911 -5.034346
											CHANNELS 3 Xrotation Yrotation Zrotation
											JOINT L_Finger01
											{
												OFFSET 0.084272 -1.788536 -4.181065
												CHANNELS 3 Xrotation Yrotation Zrotation
												End Site
												{
													OFFSET 3.261885 3.094673 -0.685818
												}
											}
										}
										JOINT L_Finger1
										{
											OFFSET -1.039112 -6.775742 -3.499998
											CHANNELS 3 Xrotation Yrotation Zrotation
											JOINT L_Finger11
											{
												OFFSET 1.320335 -3.040672 -6.425793
												CHANNELS 3 Xrotation Yrotation Zrotation
												End Site
												{
													OFFSET -1.244579 6.832077 -2.013330
												}
											}
										}
										JOINT L_Finger2
										{
											OFFSET 2.531296 -5.656487 -3.286415
											CHANNELS 3 Xrotation Yrotation Zrotation
											JOINT L_Finger21
											{
												OFFSET 1.991665 -2.402016 -5.957748
												CHANNELS 3 Xrotation Yrotation Zrotation
												End Site
												{
													OFFSET -2.793068 5.800873 -1.944178
												}
											}
										}
										JOINT L_Finger3
										{
											OFFSET 5.474075 -3.302338 -2.655975
											CHANNELS 3 Xrotation Yrotation Zrotation
											JOINT L_Finger31
											{
												OFFSET 2.026943 -1.267532 -5.961166
												CHANNELS 3 Xrotation Yrotation Zrotation
												End Site
												{
													OFFSET -4.375172 4.343658 -1.800320
												}
											}
										}
										JOINT L_Finger4
										{
											OFFSET 4.825745 1.085899 -2.321970
											CHANNELS 3 Xrotation Yrotation Zrotation
											JOINT L_Finger41
											{
												OFFSET 3.358261 -1.829651 -3.744434
												CHANNELS 3 Xrotation Yrotation Zrotation
												End Site
												{
													OFFSET -3.843296 2.955200 -2.267633
												}
											}
										}
									}
								}
							}
						}
						JOINT R_Clavicle
						{
							OFFSET -4.567111 -11.666092 -3.750036
							CHANNELS 3 Xrotation Yrotation Zrotation
							JOINT R_UpperArm
							{
								OFFSET -20.725670 -0.000031 0.000038
								CHANNELS 3 Xrotation Yrotation Zrotation
								JOINT R_Forearm
								{
									OFFSET -5.265285 -0.585762 -20.155655
									CHANNELS 3 Xrotation Yrotation Zrotation
									JOINT R_Hand
									{
										OFFSET -2.653147 -10.877739 -16.383663
										CHANNELS 3 Xrotation Yrotation Zrotation
										JOINT R_Finger0
										{
											OFFSET 4.206116 -4.328888 -5.034388
											CHANNELS 3 Xrotation Yrotation Zrotation
											JOINT R_Finger01
											{
												OFFSET -0.084324 -1.788544 -4.181051
												CHANNELS 3 Xrotation Yrotation Zrotation
												End Site
												{
													OFFSET -3.261890 3.094666 -0.685791
												}
											}
										}
										JOINT R_Finger1
										{
											OFFSET 1.039101 -6.775711 -3.499994
											CHANNELS 3 Xrotation Yrotation Zrotation
											JOINT R_Finger11
											{
												OFFSET -1.320374 -3.040672 -6.425779
												CHANNELS 3 Xrotation Yrotation Zrotation
												End Site
												{
													OFFSET 1.244556 6.832077 -2.013342
												}
											}
										}
										JOINT R_Finger2
										{
											OFFSET -2.531307 -5.656464 -3.286409
											CHANNELS 3 Xrotation Yrotation Zrotation
											JOINT R_Finger21
											{
												OFFSET -1.991707 -2.402016 -5.957708
												CHANNELS 3 Xrotation Yrotation Zrotation
												End Site
												{
													OFFSET 2.793037 5.800858 -1.944197
												}
											}
										}
										JOINT R_Finger3
										{
											OFFSET -5.474091 -3.302330 -2.655947
											CHANNELS 3 Xrotation Yrotation Zrotation
											JOINT R_Finger31
											{
												OFFSET -2.026993 -1.267532 -5.961157
												CHANNELS 3 Xrotation Yrotation Zrotation
												End Site
												{
													OFFSET 4.375156 4.343674 -1.800358
												}
											}
										}
										JOINT R_Finger4
										{
											OFFSET -4.825756 1.085922 -2.321926
											CHANNELS 3 Xrotation Yrotation Zrotation
											JOINT R_Finger41
											{
												OFFSET -3.358307 -1.829651 -3.744390
												CHANNELS 3 Xrotation Yrotation Zrotation
												End Site
												{
													OFFSET 3.843273 2.955208 -2.267666
												}
											}
										}
									}
								}
							}
						}
					}
				}
			}
		}
		JOINT Tail01
		{
			OFFSET -0.000010 10.922326 -0.017508
			CHANNELS 3 Xrotation Yrotation Zrotation
			JOINT Tail02
			{
				OFFSET -0.000022 21.986111 0.000013
				CHANNELS 3 Xrotation Yrotation Zrotation
				JOINT Tail03
				{
					OFFSET -0.000022 21.986118 0.000002
					CHANNELS 3 Xrotation Yrotation Zrotation
					JOINT Tail04
					{
						OFFSET -0.000022 21.986122 0.000004
						CHANNELS 3 Xrotation Yrotation Zrotation
						JOINT Tail05
						{
							OFFSET -0.000022 21.986099 0.000010
							CHANNELS 3 Xrotation Yrotation Zrotation
							JOINT Tail06
							{
								OFFSET -0.000022 21.986099 0.000006
								CHANNELS 3 Xrotation Yrotation Zrotation
								JOINT Tail07
								{
									OFFSET -0.000022 21.986099 0.000000
									CHANNELS 3 Xrotation Yrotation Zrotation
									JOINT Tail08
									{
										OFFSET -0.000022 21.984848 0.000050
										CHANNELS 3 Xrotation Yrotation Zrotation
										JOINT Tail09
										{
											OFFSET -0.000025 21.926025 -1.606211
											CHANNELS 3 Xrotation Yrotation Zrotation
											JOINT Tail10
											{
												OFFSET -0.000027 21.750092 -3.203882
												CHANNELS 3 Xrotation Yrotation Zrotation
												End Site
												{
													OFFSET -0.000036 4.767395 21.461668
												}
											}
										}
									}
								}
							}
						}
					}
				}
			}
		}
		JOINT L_Thigh
		{
			OFFSET 24.788780 0.000021 -0.000034
			CHANNELS 3 Xrotation Yrotation Zrotation
			JOINT L_Calf
			{
				OFFSET 4.720837 4.161326 -21.049969
				CHANNELS 3 Xrotation Yrotation Zrotation
				JOINT L_Foot
				{
					OFFSET 2.154160 21.114433 -11.949743
					CHANNELS 3 Xrotation Yrotation Zrotation
					JOINT L_Toe0
					{
						OFFSET 4.557564 9.251841 -8.735286
						CHANNELS 3 Xrotation Yrotation Zrotation
						End Site
						{
							OFFSET 4.555542 -12.646044 1.018752
						}
					}
					JOINT L_Toe1
					{
						OFFSET 2.346291 5.845602 -11.687160
						CHANNELS 3 Xrotation Yrotation Zrotation
						End Site
						{
							OFFSET 5.347954 -12.298279 1.365644
						}
					}
					JOINT L_Toe2
					{
						OFFSET -0.356020 3.902458 -12.541145
						CHANNELS 3 Xrotation Yrotation Zrotation
						End Site
						{
							OFFSET 3.916235 -12.806129 1.542549
						}
					}
					JOINT L_Toe3
					{
						OFFSET -4.603447 3.183935 -12.435249
						CHANNELS 3 Xrotation Yrotation Zrotation
						End Site
						{
							OFFSET 3.810858 -12.587427 2.957583
						}
					}
					JOINT L_Toe4
					{
						OFFSET -7.144358 6.231495 -10.072764
						CHANNELS 3 Xrotation Yrotation Zrotation
						End Site
						{
							OFFSET 3.810858 -12.587425 2.957585
						}
					}
				}
			}
		}
		JOINT R_Thigh
		{
			OFFSET -24.788780 -0.000024 0.000034
			CHANNELS 3 Xrotation Yrotation Zrotation
			JOINT R_Calf
			{
				OFFSET -4.720922 4.161324 -21.049952
				CHANNELS 3 Xrotation Yrotation Zrotation
				JOINT R_Foot
				{
					OFFSET -2.154238 21.114414 -11.949730
					CHANNELS 3 Xrotation Yrotation Zrotation
					JOINT R_Toe0
					{
						OFFSET -4.557598 9.251823 -8.735270
						CHANNELS 3 Xrotation Yrotation Zrotation
						End Site
						{
							OFFSET -4.555508 -12.646051 1.018756
						}
					}
					JOINT R_Toe1
					{
						OFFSET -2.346325 5.845589 -11.687157
						CHANNELS 3 Xrotation Yrotation Zrotation
						End Site
						{
							OFFSET -5.347919 -12.298286 1.365654
						}
					}
					JOINT R_Toe2
					{
						OFFSET 0.355980 3.902462 -12.541145
						CHANNELS 3 Xrotation Yrotation Zrotation
						End Site
						{
							OFFSET -3.916199 -12.806131 1.542559
						}
					}
					JOINT R_Toe3
					{
						OFFSET 4.603411 3.183941 -12.435266
						CHANNELS 3 Xrotation Yrotation Zrotation
						End Site
						{
							OFFSET -3.810825 -12.587429 2.957591
						}
					}
					JOINT R_Toe4
					{
						OFFSET 7.144323 6.231503 -10.072779
						CHANNELS 3 Xrotation Yrotation Zrotation
						End Site
						{
							OFFSET -3.810825 -12.587433 2.957584
						}
					}
				}
			}
		}
	}
}
MOTION
Frames: 4
Frame Time: 0.033333
-11.992709 0.000001 36.000000 0.000000 -0.000000 -0.000058 -0.000001 -0.000000 -13.456116 -5.205888 2.625717 3.932894 -5.464864 2.607387 4.635913 -5.786266 2.551995 5.174955 -4.976503 2.432802 7.492538 -5.041134 -0.111730 3.132444 -8.260547 -3.375436 2.453811 -0.339862 -11.146627 -4.997770 -17.253314 -0.000021 0.000025 0.000022 0.000000 0.000001 0.000022 0.000001 -0.000006 0.000003 -0.000000 -0.000031 0.000139 -0.000082 0.000011 0.000000 -0.000003 0.000003 0.000006 -0.000007 0.000014 0.000001 0.000000 -0.000009 0.000131 0.000081 -0.000008 0.000001 -0.000003 0.000002 -0.000008 0.000007 0.000006 0.000001 -0.000000 -0.000002 0.000136 18.447079 11.357163 107.824105 -10.122380 50.700190 -6.349067 1.086925 -1.632816 0.895850 0.694671 -14.742236 6.824816 7.695871 -4.440346 -4.444509 8.285166 -5.013894 -10.853630 -2.177419 -1.347520 -10.852524 -2.185248 -1.344257 -9.882292 -4.989602 -1.640990 -9.879536 -4.995629 -1.646103 -7.741110 -7.969426 -1.421236 -7.740931 -7.966631 -1.424963 -6.435321 -9.017291 -1.707985 -6.438529 -9.013135 -1.707612 -0.002208 -13.387208 -10.697020 107.805397 9.512077 8.923389 -15.854922 -3.046113 3.842398 22.704828 2.712588 35.661142 17.515516 3.434494 0.023309 8.946383 5.631610 -0.729726 8.825509 -1.941723 -0.778238 8.824673 -1.946061 -0.776826 7.977469 -4.240188 -0.698360 7.978822 -4.238634 -0.694368 6.211471 -6.599118 -0.370427 6.213819 -6.597698 -0.363336 5.105931 -7.458205 -0.638727 5.100358 -7.461088 -0.645550 4.966970 -0.210239 -2.292866 4.977285 0.094138 1.085962 4.952770 -0.485728 -5.635871 4.960550 -0.388539 -4.528301 4.975541 -0.013858 -0.169331 4.963849 0.294606 3.455236 4.942278 0.517970 6.068439 4.928495 1.240502 7.765259 4.581100 2.750211 11.693188 4.002821 4.431360 14.218484 39.757667 0.429952 -4.597944 -2.986078 -0.065800 -0.688000 40.166939 -2.877279 9.155556 0.002496 0.004584 0.001253 0.001438 0.008381 0.000788 0.004207 -0.002125 0.006017 0.002527 0.003425 -0.008414 0.002848 0.003744 -0.001727 20.115213 -1.545633 -8.339492 13.298815 -0.723624 -2.989352 40.016723 -20.160927 -8.268453 14.851883 -6.554672 -4.804983 14.878087 -7.494300 -3.294930 16.253926 -5.326929 -0.855843 16.538441 -4.477034 1.834759 16.254754 -3.122621 5.011273 
-13.865157 0.000002 36.000000 0.000000 -0.000000 -0.000058 -0.000001 -0.000000 -12.652998 -5.284254 2.952712 4.852051 -5.531313 2.650327 4.851058 -5.846811 2.597036 5.399018 -4.919817 2.543377 7.042213 -5.041079 -0.069834 2.472936 -8.305096 -3.430688 1.577880 0.017280 -11.055454 -5.117421 -17.253319 -0.000020 0.000024 0.000020 0.000001 -0.000001 0.000020 0.000001 -0.000006 0.000000 -0.000000 -0.000036 0.000140 -0.000081 0.000013 0.000005 -0.000001 -0.000001 0.000007 -0.000005 0.000014 0.000001 0.000000 -0.000009 0.000130 0.000081 -0.000008 0.000001 -0.000003 -0.000000 -0.000004 0.000004 0.000004 -0.000001 -0.000000 0.000001 0.000839 18.352756 11.160429 108.395157 -9.791203 48.677003 -8.478344 1.492364 -2.153960 1.535888 1.114377 -14.830706 7.298322 7.169294 -4.280946 -3.979713 7.759690 -4.861136 -10.138241 -2.041219 -1.246037 -10.136942 -2.049722 -1.243305 -9.227142 -4.665995 -1.508371 -9.223667 -4.676515 -1.511222 -7.224850 -7.445303 -1.291786 -7.222128 -7.449325 -1.297359 -6.003962 -8.425465 -1.562786 -6.002931 -8.426866 -1.562931 -0.004450 -13.542219 -10.992973 107.243826 9.680481 6.840570 -14.279337 -2.695528 3.497953 21.914662 0.509985 35.083605 16.941273 2.880054 0.298167 7.610673 4.370160 -0.046518 6.962249 -1.520478 -0.642952 6.961703 -1.525274 -0.637775 6.294708 -3.335648 -0.596833 6.294743 -3.335661 -0.596824 4.899608 -5.200973 -0.346208 4.899616 -5.200988 -0.346206 4.024757 -5.880319 -0.564191 4.024714 -5.880293 -0.564214 4.967369 -0.202159 -2.271434 4.977926 0.071731 0.913461 4.950553 -0.519534 -6.014138 4.956994 -0.447422 -5.210300 4.975288 -0.097187 -1.195399 4.969768 0.187241 2.112697 4.955490 0.387490 4.502611 4.965958 1.039470 6.152318 4.614638 2.485231 10.349033 3.981627 4.144706 13.461339 39.496481 -0.167467 -3.925690 -2.576892 -0.058905 -0.593543 41.180986 -1.918652 8.403768 0.000003 -0.000008 0.000001 -0.000001 -0.000003 0.000002 0.000404 -0.001356 0.000163 -0.001299 0.004294 -0.001006 -0.001543 0.005114 -0.001200 20.560726 -2.091807 -7.921734 12.784679 -0.682814 -2.877192 38.917079 -19.581852 -8.724884 14.991090 -6.622983 -4.842259 15.018469 -7.569512 -3.316631 16.406898 -5.382891 -0.861007 16.698061 -4.510931 1.863874 16.413394 -3.136561 5.061128 
-15.565919 0.000002 36.000000 0.000000 -0.000000 -0.000058 -0.000001 -0.000000 -11.145213 -5.348401 3.320806 5.330032 -5.594257 2.609839 5.108163 -5.879790 2.573889 5.449259 -4.757275 2.597075 6.235611 -5.040008 -0.048365 1.864646 -8.354456 -3.529469 0.620349 0.465906 -10.652533 -5.076492 -17.253311 -0.000021 0.000024 0.000018 0.000001 0.000001 0.000018 0.000001 -0.000006 0.000002 -0.000000 -0.000034 0.000138 -0.000080 0.000010 0.000003 -0.000005 -0.000003 0.000005 -0.000004 0.000010 0.000001 -0.000000 -0.000004 0.000132 0.000083 -0.000010 -0.000002 -0.000001 -0.000003 -0.000004 0.000006 -0.000001 -0.000003 0.000001 -0.000000 0.001659 18.231546 11.029529 109.195621 -9.358613 45.744584 -10.998072 1.997608 -2.751820 2.268792 1.770353 -14.616501 7.877220 6.523771 -4.079779 -3.399710 7.109066 -4.665151 -9.249206 -1.870360 -1.121401 -9.247603 -1.879472 -1.120163 -8.411684 -4.269575 -1.349602 -8.409612 -4.277620 -1.348711 -6.582652 -6.798069 -1.141856 -6.579486 -6.804547 -1.145470 -5.467350 -7.694789 -1.387901 -5.464273 -7.696407 -1.389597 0.003714 -13.959997 -11.482785 106.784660 10.247400 3.284599 -12.874010 -2.391219 3.183084 20.616964 -3.787642 31.515828 15.929683 1.893697 0.780591 5.782456 2.610218 0.859026 4.382414 -0.943067 -0.426659 4.381154 -0.950599 -0.422866 3.962787 -2.090647 -0.414768 3.962523 -2.090967 -0.418145 3.083717 -3.267995 -0.263308 3.083178 -3.268596 -0.269600 2.535024 -3.693660 -0.393734 2.535748 -3.694712 -0.402850 4.967515 -0.196654 -2.292356 4.978591 0.041898 0.660130 4.948242 -0.550115 -6.339051 4.953488 -0.500270 -5.809907 4.973554 -0.178513 -2.178304 4.974023 0.076643 0.751023 4.965604 0.247644 2.844460 5.009246 0.816452 4.394971 4.672932 2.171385 8.743848 3.997842 3.798326 12.401735 39.040087 -1.036599 -3.214070 -2.041856 -0.048872 -0.470104 42.716491 -0.540905 7.559542 -0.000001 -0.000011 0.000004 -0.000005 -0.000002 -0.000000 -0.000015 -0.000008 0.000003 -0.001023 0.003375 -0.000792 -0.001921 0.006351 -0.001493 21.290832 -2.783873 -7.676772 11.938340 -0.617831 -2.691804 38.055540 -18.737451 -9.306555 15.398245 -6.822144 -4.952835 15.429583 -7.788806 -3.380205 16.859962 -5.533556 -0.863414 17.162076 -4.625613 1.934226 16.868373 -3.205945 5.215320 
-17.062626 0.000002 36.000000 0.000000 -0.000000 -0.000058 -0.000000 -0.000000 -9.166425 -5.395526 3.714869 5.468935 -5.651493 2.497852 5.360630 -5.887785 2.488935 5.358262 -4.526415 2.592510 5.173339 -5.038871 -0.037890 1.284020 -8.408909 -3.627915 -0.380291 0.962708 -9.997602 -4.913408 -17.253314 -0.000021 0.000026 0.000016 -0.000000 0.000001 0.000025 -0.000000 -0.000007 0.000004 -0.000001 -0.000036 0.000140 -0.000080 0.000010 0.000002 -0.000002 0.000003 0.000008 -0.000004 0.000017 0.000004 -0.000000 -0.000003 0.000135 0.000083 -0.000008 0.000004 0.000003 -0.000001 -0.000007 0.000008 -0.000003 0.000002 -0.000000 0.000001 0.002200 18.088971 10.937377 110.128037 -8.976554 42.288580 -13.685157 2.565846 -3.365576 3.302649 2.574934 -14.178840 8.536516 5.792628 -3.848228 -2.732583 6.369115 -4.432348 -8.232478 -1.672876 -0.982100 -8.230599 -1.682360 -0.982547 -7.480234 -3.816234 -1.172263 -7.480080 -3.818447 -1.169862 -5.848628 -6.061994 -0.979853 -5.847314 -6.064800 -0.980866 -4.852475 -6.862151 -1.196713 -4.851760 -6.858715 -1.200121 0.001800 -14.482933 -12.050376 106.478039 10.978190 -0.919847 -11.523453 -2.106393 2.873897 18.837918 -8.064334 26.625005 14.753410 0.726036 1.328565 3.890140 0.723153 1.749783 1.661896 -0.346901 -0.169311 1.659972 -0.356177 -0.168681 1.502187 -0.788431 -0.175341 1.502203 -0.788437 -0.175335 1.168943 -1.236108 -0.122744 1.168961 -1.236107 -0.122750 0.962875 -1.397120 -0.171713 0.962852 -1.397100 -0.171721 4.967193 -0.197723 -2.372640 4.979038 0.008432 0.254534 4.944415 -0.580703 -6.704726 4.949786 -0.548210 -6.349653 4.971116 -0.254625 -3.025054 4.976522 -0.030712 -0.450047 4.970899 0.110633 1.247344 5.054105 0.579487 2.457258 4.763266 1.785756 6.675777 4.070100 3.332477 10.794216 38.377651 -2.033361 -2.413358 -1.392452 -0.035147 -0.320416 44.730120 1.121418 6.671224 0.000004 -0.000010 0.000002 0.000000 0.000002 0.000002 0.000102 -0.000378 0.000045 -0.000586 0.001926 -0.000452 -0.002035 0.006774 -0.001592 22.262086 -3.568298 -7.447880 10.812097 -0.535647 -2.443733 37.435543 -17.658513 -9.997132 16.039412 -7.137902 -5.126198 16.076930 -8.138689 -3.477941 17.575016 -5.770729 -0.865397 17.894662 -4.804704 2.047641 17.586830 -3.309960 5.460805 
